<svg width="211" height="49" viewBox="0 0 211 49" fill="none" xmlns="http://www.w3.org/2000/svg">
<path d="M21.0645 30.9222C21.3435 30.8106 21.576 30.7548 21.762 30.7548C22.0596 30.7548 22.2828 30.8664 22.4316 31.0896C22.5804 31.3128 22.6548 31.6011 22.6548 31.9545C22.6548 32.5125 22.5153 32.9868 22.2363 33.3774C21.9759 33.768 21.5202 34.1214 20.8692 34.4376C19.7718 34.9584 18.3489 35.3769 16.6005 35.6931C14.8521 35.9907 13.1316 36.1395 11.439 36.1395C9.0954 36.1395 7.1331 35.8791 5.5521 35.3583C3.9711 34.8189 2.79 34.0842 2.0088 33.1542C1.2462 32.2242 0.8649 31.1733 0.8649 30.0015C0.8649 28.4019 1.3764 27.0441 2.3994 25.9281C3.441 24.7935 4.9662 23.9751 6.975 23.4729C5.8776 23.1567 5.0313 22.5987 4.4361 21.7989C3.8595 20.9991 3.5712 20.1063 3.5712 19.1205C3.5712 17.7813 3.9897 16.6002 4.8267 15.5772C5.6823 14.5356 6.8262 13.7358 8.2584 13.1778C9.6906 12.6198 11.2623 12.3408 12.9735 12.3408C15.2799 12.3408 17.0097 12.843 18.1629 13.8474C19.3161 14.8332 19.8927 16.1166 19.8927 17.6976C19.8927 18.795 19.6881 19.6878 19.2789 20.376C18.8883 21.0456 18.321 21.3804 17.577 21.3804C17.0562 21.3804 16.647 21.2688 16.3494 21.0456C16.0518 20.8038 15.903 20.4504 15.903 19.9854C15.903 19.6692 15.9495 19.3251 16.0425 18.9531C16.1355 18.3393 16.182 17.9208 16.182 17.6976C16.182 17.028 15.9309 16.4886 15.4287 16.0794C14.9265 15.6516 14.0895 15.4377 12.9177 15.4377C11.3367 15.4377 10.0719 15.7725 9.1233 16.4421C8.1747 17.1117 7.7004 18.0138 7.7004 19.1484C7.7004 20.0226 8.0538 20.748 8.7606 21.3246C9.486 21.8826 10.6578 22.1895 12.276 22.2453C12.6852 22.2639 12.9735 22.3569 13.1409 22.5243C13.3083 22.6917 13.392 22.9707 13.392 23.3613C13.392 24.5889 12.834 25.212 11.718 25.2306C10.1742 25.2678 8.8908 25.4817 7.8678 25.8723C6.8634 26.2629 6.1287 26.7651 5.6637 27.3789C5.2173 27.9741 4.9941 28.6158 4.9941 29.304C4.9941 30.4572 5.5335 31.3314 6.6123 31.9266C7.6911 32.5032 9.4023 32.7915 11.7459 32.7915C13.2897 32.7915 14.9172 32.6148 16.6284 32.2614C18.3582 31.8894 19.8369 31.443 21.0645 30.9222ZM28.5291 32.0661C28.7337 31.8801 28.9383 31.7871 29.1429 31.7871C29.3661 31.7871 29.5428 31.9173 29.673 32.1777C29.8218 32.4195 29.8962 32.7171 29.8962 33.0705C29.8962 33.8517 29.6172 34.4748 29.0592 34.9398C28.092 35.7396 26.9946 36.1395 25.767 36.1395C24 36.1395 22.7073 35.4048 21.8889 33.9354C21.0705 32.4474 20.6613 30.513 20.6613 28.1322C20.6613 25.863 20.9496 23.2776 21.5262 20.376C22.1214 17.4744 22.9863 14.982 24.1209 12.8988C25.2741 10.8156 26.6412 9.774 28.2222 9.774C29.115 9.774 29.8125 10.1925 30.3147 11.0295C30.8355 11.8479 31.0959 13.029 31.0959 14.5728C31.0959 16.7862 30.4821 19.353 29.2545 22.2732C28.0455 25.1934 26.3901 28.0764 24.2883 30.9222C24.4185 31.6848 24.651 32.2335 24.9858 32.5683C25.3206 32.9031 25.7763 33.0705 26.3529 33.0705C26.6691 33.0705 27.0225 32.9775 27.4131 32.7915C27.8223 32.6055 28.1943 32.3637 28.5291 32.0661ZM27.6084 12.5361C27.1806 12.5361 26.697 13.308 26.1576 14.8518C25.6182 16.3956 25.1439 18.3114 24.7347 20.5992C24.3255 22.887 24.1023 25.0818 24.0651 27.1836C25.3857 25.0074 26.4366 22.8312 27.2178 20.655C27.999 18.4602 28.3896 16.4607 28.3896 14.6565C28.3896 13.2429 28.1292 12.5361 27.6084 12.5361ZM58.3768 29.7783C58.6186 29.7783 58.8046 29.8899 58.9348 30.1131C59.0836 30.3363 59.158 30.6432 59.158 31.0338C59.158 31.7592 58.9813 32.3358 58.6279 32.7636C57.5863 34.0098 56.5726 34.884 55.5868 35.3862C54.6196 35.8884 53.4478 36.1395 52.0714 36.1395C51.1042 36.1395 50.2114 36.0186 49.393 35.7768C48.5746 35.535 47.5795 35.1723 46.4077 34.6887C45.3475 34.2237 44.3245 33.8424 43.3387 33.5448C42.3901 35.2746 40.9672 36.1395 39.07 36.1395C38.0284 36.1395 37.2007 35.907 36.5869 35.442C35.9545 34.9584 35.6383 34.3446 35.6383 33.6006C35.6383 32.6892 36.0754 31.9359 36.9496 31.3407C37.8238 30.7269 38.9863 30.42 40.4371 30.42H40.7998L41.302 22.3011C41.4136 20.4411 41.7484 18.9066 42.3064 17.6976C42.8644 16.4886 43.6363 15.4563 44.6221 14.6007C45.4777 13.8567 46.4542 13.2987 47.5516 12.9267C48.649 12.5361 49.8115 12.3408 51.0391 12.3408C53.0479 12.3408 54.5917 12.8616 55.6705 13.9032C56.7493 14.9448 57.2887 16.3026 57.2887 17.9766C57.2887 19.1112 57.0841 20.0319 56.6749 20.7387C56.2657 21.4269 55.6984 21.771 54.973 21.771C54.4522 21.771 54.043 21.6501 53.7454 21.4083C53.4478 21.1479 53.299 20.7852 53.299 20.3202C53.299 20.1528 53.3362 19.8459 53.4106 19.3995C53.5222 18.8787 53.578 18.4137 53.578 18.0045C53.578 17.2233 53.3455 16.6095 52.8805 16.1631C52.4341 15.6981 51.7459 15.4656 50.8159 15.4656C49.1791 15.4656 47.9143 16.005 47.0215 17.0838C46.1287 18.144 45.5614 19.818 45.3196 22.1058L44.6779 28.4391C44.5849 29.3319 44.464 30.1038 44.3152 30.7548C45.5056 30.9594 46.9936 31.2849 48.7792 31.7313C49.8208 31.9917 50.6206 32.1777 51.1786 32.2893C51.7366 32.4009 52.2295 32.4567 52.6573 32.4567C53.7361 32.4567 54.6568 32.28 55.4194 31.9266C56.2006 31.5546 56.9353 30.9687 57.6235 30.1689C57.8467 29.9085 58.0978 29.7783 58.3768 29.7783ZM71.5716 29.7783C71.8134 29.7783 71.9994 29.8899 72.1296 30.1131C72.2784 30.3363 72.3528 30.6432 72.3528 31.0338C72.3528 31.7778 72.1761 32.3544 71.8227 32.7636C71.1345 33.6006 70.158 34.3725 68.8932 35.0793C67.647 35.7861 66.3078 36.1395 64.8756 36.1395C62.9226 36.1395 61.4067 35.6094 60.3279 34.5492C59.2491 33.489 58.7097 32.0382 58.7097 30.1968C58.7097 28.9134 58.9794 27.723 59.5188 26.6256C60.0582 25.5096 60.8022 24.6261 61.7508 23.9751C62.718 23.3241 63.8061 22.9986 65.0151 22.9986C66.0939 22.9986 66.9588 23.3241 67.6098 23.9751C68.2608 24.6075 68.5863 25.4724 68.5863 26.5698C68.5863 27.8532 68.1213 28.9599 67.1913 29.8899C66.2799 30.8013 64.7268 31.5267 62.532 32.0661C62.997 32.9217 63.8805 33.3495 65.1825 33.3495C66.0195 33.3495 66.9681 33.0612 68.0283 32.4846C69.1071 31.8894 70.0371 31.1175 70.8183 30.1689C71.0415 29.9085 71.2926 29.7783 71.5716 29.7783ZM64.5408 25.7328C63.8526 25.7328 63.2667 26.1327 62.7831 26.9325C62.3181 27.7323 62.0856 28.6995 62.0856 29.8341V29.8899C63.183 29.6295 64.0479 29.2389 64.6803 28.7181C65.3127 28.1973 65.6289 27.5928 65.6289 26.9046C65.6289 26.5512 65.5266 26.2722 65.322 26.0676C65.136 25.8444 64.8756 25.7328 64.5408 25.7328ZM75.41 36.1395C73.5872 36.1395 72.1643 35.628 71.1413 34.605C70.1369 33.5634 69.6347 32.1963 69.6347 30.5037C69.6347 28.9971 69.9323 27.6765 70.5275 26.5419C71.1227 25.4073 71.8946 24.5331 72.8432 23.9193C73.7918 23.3055 74.7869 22.9986 75.8285 22.9986C76.8515 22.9986 77.642 23.3055 78.2 23.9193C78.7766 24.5145 79.0649 25.2864 79.0649 26.235C79.0649 27.0162 78.8882 27.6765 78.5348 28.2159C78.2 28.7553 77.7536 29.025 77.1956 29.025C76.8422 29.025 76.5539 28.9413 76.3307 28.7739C76.1261 28.6065 76.0238 28.374 76.0238 28.0764C76.0238 27.9462 76.0424 27.7974 76.0796 27.63C76.1168 27.4626 76.1447 27.3417 76.1633 27.2673C76.2563 26.9883 76.3028 26.7279 76.3028 26.4861C76.3028 26.2443 76.2377 26.0583 76.1075 25.9281C75.9959 25.7979 75.8285 25.7328 75.6053 25.7328C75.1775 25.7328 74.7776 25.9281 74.4056 26.3187C74.0336 26.6907 73.736 27.2022 73.5128 27.8532C73.2896 28.5042 73.178 29.2203 73.178 30.0015C73.178 32.1591 74.1173 33.2379 75.9959 33.2379C76.7585 33.2379 77.5769 32.9868 78.4511 32.4846C79.3439 31.9638 80.2181 31.1919 81.0737 30.1689C81.2969 29.9085 81.548 29.7783 81.827 29.7783C82.0688 29.7783 82.2548 29.8899 82.385 30.1131C82.5338 30.3363 82.6082 30.6432 82.6082 31.0338C82.6082 31.7406 82.4315 32.3172 82.0781 32.7636C81.2039 33.8424 80.153 34.6794 78.9254 35.2746C77.7164 35.8512 76.5446 36.1395 75.41 36.1395ZM92.9325 29.7783C93.1743 29.7783 93.3603 29.8899 93.4905 30.1131C93.6393 30.3363 93.7137 30.6432 93.7137 31.0338C93.7137 31.7778 93.537 32.3544 93.1836 32.7636C92.3838 33.7494 91.5096 34.5585 90.561 35.1909C89.6124 35.8233 88.5243 36.1395 87.2967 36.1395C83.5023 36.1395 81.6051 33.4704 81.6051 28.1322C81.6051 27.3138 81.633 26.4861 81.6888 25.6491H80.6007C80.0427 25.6491 79.6614 25.5468 79.4568 25.3422C79.2708 25.1376 79.1778 24.8121 79.1778 24.3657C79.1778 23.3241 79.5963 22.8033 80.4333 22.8033H82.0236C82.3398 20.7573 82.8234 18.888 83.4744 17.1954C84.1254 15.5028 84.9066 14.1543 85.818 13.1499C86.748 12.1455 87.7431 11.6433 88.8033 11.6433C89.5845 11.6433 90.1983 11.9874 90.6447 12.6756C91.0911 13.3638 91.3143 14.2287 91.3143 15.2703C91.3143 18.1533 90.1053 20.6643 87.6873 22.8033H90.8121C91.1097 22.8033 91.3236 22.8684 91.4538 22.9986C91.584 23.1288 91.6491 23.3706 91.6491 23.724C91.6491 25.0074 90.5982 25.6491 88.4964 25.6491H85.0926C85.0554 26.5791 85.0368 27.3045 85.0368 27.8253C85.0368 29.7597 85.26 31.1175 85.7064 31.8987C86.1714 32.6799 86.8968 33.0705 87.8826 33.0705C88.6824 33.0705 89.3892 32.8287 90.003 32.3451C90.6168 31.8615 91.3422 31.1361 92.1792 30.1689C92.4024 29.9085 92.6535 29.7783 92.9325 29.7783ZM88.05 14.3217C87.771 14.3217 87.4548 14.6751 87.1014 15.3819C86.7666 16.0701 86.4411 17.0373 86.1249 18.2835C85.8273 19.5111 85.5762 20.8782 85.3716 22.3848C86.469 21.4362 87.2874 20.376 87.8268 19.2042C88.3848 18.0138 88.6638 16.935 88.6638 15.9678C88.6638 14.8704 88.4592 14.3217 88.05 14.3217ZM105.671 27.4347C105.913 27.4347 106.099 27.5556 106.229 27.7974C106.359 28.0392 106.424 28.3461 106.424 28.7181C106.424 29.6109 106.155 30.141 105.615 30.3084C104.499 30.699 103.272 30.9222 101.932 30.978C101.579 32.5404 100.882 33.7959 99.8399 34.7445C98.7983 35.6745 97.6172 36.1395 96.2966 36.1395C95.1806 36.1395 94.2227 35.8698 93.4229 35.3304C92.6417 34.791 92.0465 34.0749 91.6373 33.1821C91.2281 32.2893 91.0235 31.3221 91.0235 30.2805C91.0235 28.8669 91.2932 27.6114 91.8326 26.514C92.372 25.398 93.116 24.5331 94.0646 23.9193C95.0132 23.2869 96.0641 22.9707 97.2173 22.9707C98.6309 22.9707 99.7655 23.4636 100.621 24.4494C101.495 25.4166 102.007 26.6163 102.156 28.0485C103.03 27.9927 104.071 27.8067 105.28 27.4905C105.429 27.4533 105.559 27.4347 105.671 27.4347ZM96.5198 33.1821C97.115 33.1821 97.6265 32.9403 98.0543 32.4567C98.5007 31.9731 98.7983 31.2756 98.9471 30.3642C98.3705 29.9736 97.9241 29.4621 97.6079 28.8297C97.3103 28.1973 97.1615 27.5277 97.1615 26.8209C97.1615 26.5233 97.1894 26.2257 97.2452 25.9281H97.1057C96.3617 25.9281 95.7386 26.2908 95.2364 27.0162C94.7528 27.723 94.511 28.7274 94.511 30.0294C94.511 31.0524 94.7063 31.8336 95.0969 32.373C95.5061 32.9124 95.9804 33.1821 96.5198 33.1821ZM115.301 26.8209C115.711 26.8209 116.055 26.9697 116.334 27.2673C116.631 27.5463 116.78 27.8997 116.78 28.3275C116.78 28.5693 116.724 28.8297 116.613 29.1087C116.315 29.7969 115.897 30.3735 115.357 30.8385C114.818 31.3035 114.223 31.536 113.572 31.536C113.051 31.536 112.604 31.35 112.232 30.978C111.879 30.606 111.702 30.1038 111.702 29.4714C111.702 29.118 111.721 28.7367 111.758 28.3275C111.795 28.0299 111.814 27.8253 111.814 27.7137C111.814 27.5649 111.777 27.4533 111.702 27.3789C111.646 27.3045 111.572 27.2673 111.479 27.2673C111.219 27.2673 110.865 27.5835 110.419 28.2159C109.972 28.8297 109.526 29.6481 109.08 30.6711C108.633 31.6941 108.271 32.7729 107.992 33.9075C107.787 34.8003 107.554 35.3955 107.294 35.6931C107.034 35.9907 106.606 36.1395 106.011 36.1395C105.304 36.1395 104.802 35.7675 104.504 35.0235C104.225 34.2795 104.086 33.0891 104.086 31.4523C104.086 29.0343 104.43 26.7372 105.118 24.561C105.285 24.0216 105.555 23.631 105.927 23.3892C106.318 23.1288 106.857 22.9986 107.545 22.9986C107.917 22.9986 108.178 23.0451 108.326 23.1381C108.475 23.2311 108.55 23.4078 108.55 23.6682C108.55 23.9658 108.41 24.6354 108.131 25.677C107.945 26.421 107.796 27.072 107.685 27.63C107.573 28.188 107.48 28.8762 107.406 29.6946C108.019 28.095 108.708 26.793 109.47 25.7886C110.233 24.7842 110.977 24.0681 111.702 23.6403C112.428 23.2125 113.088 22.9986 113.683 22.9986C114.223 22.9986 114.632 23.1567 114.911 23.4729C115.208 23.7705 115.357 24.2169 115.357 24.8121C115.357 25.1655 115.255 25.8351 115.05 26.8209H115.301ZM130.361 36.1395C129.673 36.1395 129.18 35.9907 128.882 35.6931C128.584 35.3769 128.436 34.791 128.436 33.9354C128.436 33.3588 128.491 32.6613 128.603 31.8429C128.715 31.0245 128.91 29.7876 129.189 28.1322C129.226 27.909 129.375 27.0069 129.635 25.4259C129.896 23.8263 130.128 22.1523 130.333 20.4039C130.519 18.9159 130.612 17.7999 130.612 17.0559C130.612 16.2189 130.305 15.8004 129.691 15.8004C129.226 15.8004 128.64 16.0515 127.933 16.5537C127.245 17.0373 126.501 17.8185 125.701 18.8973C125.441 19.2507 125.153 19.4274 124.837 19.4274C124.576 19.4274 124.344 19.3065 124.139 19.0647C123.953 18.8043 123.86 18.516 123.86 18.1998C123.86 17.8836 123.916 17.586 124.027 17.307C124.139 17.0094 124.344 16.656 124.641 16.2468C125.553 15.0006 126.566 14.0427 127.682 13.3731C128.798 12.6849 129.97 12.3408 131.198 12.3408C132.221 12.3408 132.983 12.657 133.486 13.2894C134.006 13.9218 134.267 14.8425 134.267 16.0515C134.267 17.1303 134.118 18.6927 133.82 20.7387C134.75 17.9859 135.931 15.9027 137.364 14.4891C138.796 13.0569 140.479 12.3408 142.414 12.3408C143.939 12.3408 145.083 12.7779 145.845 13.6521C146.626 14.5077 147.017 15.6609 147.017 17.1117C147.017 17.9301 146.896 18.9252 146.654 20.097L144.952 28.0764C144.766 29.0064 144.673 29.8062 144.673 30.4758C144.673 31.257 144.85 31.8429 145.204 32.2335C145.576 32.6241 146.087 32.8194 146.738 32.8194C147.352 32.8194 147.947 32.6148 148.524 32.2056C149.119 31.7964 149.816 31.1175 150.616 30.1689C150.839 29.9085 151.09 29.7783 151.369 29.7783C151.611 29.7783 151.797 29.8899 151.927 30.1131C152.076 30.3363 152.151 30.6432 152.151 31.0338C152.151 31.7592 151.974 32.3358 151.621 32.7636C150.653 33.9354 149.695 34.791 148.747 35.3304C147.798 35.8698 146.803 36.1395 145.762 36.1395C144.181 36.1395 142.944 35.6745 142.051 34.7445C141.158 33.7959 140.712 32.5311 140.712 30.9501C140.712 30.3363 140.758 29.6667 140.851 28.9413C140.963 28.2159 141.139 27.2952 141.381 26.1792L142.497 21.0735C142.534 20.9061 142.6 20.6085 142.693 20.1807C142.786 19.7529 142.86 19.353 142.916 18.981C142.972 18.5904 142.999 18.2091 142.999 17.8371C142.999 17.2419 142.832 16.7676 142.497 16.4142C142.162 16.0608 141.688 15.8841 141.074 15.8841C139.958 15.8841 138.842 16.4793 137.726 17.6697C136.61 18.8601 135.578 20.7852 134.629 23.445C133.681 26.0862 132.937 29.4714 132.397 33.6006C132.267 34.5492 132.072 35.2095 131.812 35.5815C131.57 35.9535 131.086 36.1395 130.361 36.1395ZM164.114 27.4347C164.356 27.4347 164.542 27.5556 164.672 27.7974C164.802 28.0392 164.867 28.3461 164.867 28.7181C164.867 29.6109 164.598 30.141 164.058 30.3084C162.942 30.699 161.715 30.9222 160.375 30.978C160.022 32.5404 159.324 33.7959 158.283 34.7445C157.241 35.6745 156.06 36.1395 154.74 36.1395C153.624 36.1395 152.666 35.8698 151.866 35.3304C151.085 34.791 150.489 34.0749 150.08 33.1821C149.671 32.2893 149.466 31.3221 149.466 30.2805C149.466 28.8669 149.736 27.6114 150.276 26.514C150.815 25.398 151.559 24.5331 152.508 23.9193C153.456 23.2869 154.507 22.9707 155.66 22.9707C157.074 22.9707 158.208 23.4636 159.064 24.4494C159.938 25.4166 160.45 26.6163 160.599 28.0485C161.473 27.9927 162.514 27.8067 163.723 27.4905C163.872 27.4533 164.002 27.4347 164.114 27.4347ZM154.963 33.1821C155.558 33.1821 156.069 32.9403 156.497 32.4567C156.944 31.9731 157.241 31.2756 157.39 30.3642C156.813 29.9736 156.367 29.4621 156.051 28.8297C155.753 28.1973 155.604 27.5277 155.604 26.8209C155.604 26.5233 155.632 26.2257 155.688 25.9281H155.549C154.805 25.9281 154.182 26.2908 153.679 27.0162C153.196 27.723 152.954 28.7274 152.954 30.0294C152.954 31.0524 153.149 31.8336 153.54 32.373C153.949 32.9124 154.423 33.1821 154.963 33.1821ZM176.556 27.5184C176.611 27.4998 176.704 27.4905 176.835 27.4905C177.114 27.4905 177.327 27.5835 177.476 27.7695C177.625 27.9555 177.699 28.2066 177.699 28.5228C177.699 29.0994 177.588 29.5551 177.365 29.8899C177.141 30.2061 176.807 30.4386 176.36 30.5874C175.505 30.8664 174.593 31.0059 173.626 31.0059C172.808 31.0059 172.036 30.8943 171.31 30.6711C170.771 31.5453 170.176 32.4474 169.525 33.3774C168.781 34.4376 168.139 35.163 167.6 35.5536C167.06 35.9442 166.446 36.1395 165.758 36.1395C164.996 36.1395 164.391 35.8419 163.945 35.2467C163.517 34.6515 163.247 33.7122 163.136 32.4288C162.912 29.8248 162.801 27.5463 162.801 25.5933V24.6168C162.819 24.003 162.987 23.5752 163.303 23.3334C163.619 23.0916 164.094 22.9707 164.726 22.9707C165.21 22.9707 165.563 23.0823 165.786 23.3055C166.028 23.5101 166.149 23.8635 166.149 24.3657C166.149 26.5047 166.279 29.2854 166.539 32.7078C167.655 31.0524 168.492 29.7318 169.05 28.746C168.771 28.2066 168.632 27.5649 168.632 26.8209C168.632 26.1885 168.771 25.5747 169.05 24.9795C169.329 24.3843 169.711 23.9007 170.194 23.5287C170.678 23.1567 171.227 22.9707 171.84 22.9707C172.38 22.9707 172.817 23.166 173.152 23.5566C173.487 23.9286 173.654 24.4773 173.654 25.2027C173.654 26.0397 173.431 26.9976 172.984 28.0764C173.691 28.0392 174.63 27.8997 175.802 27.6579L176.556 27.5184ZM178.71 36.1395C177.557 36.1395 176.636 35.721 175.948 34.884C175.26 34.047 174.916 32.9496 174.916 31.5918C174.916 30.1038 175.26 28.6995 175.948 27.3789C176.636 26.0397 177.547 24.9702 178.682 24.1704C179.835 23.352 181.054 22.9428 182.337 22.9428C182.746 22.9428 183.016 23.0265 183.146 23.1939C183.295 23.3427 183.416 23.6217 183.509 24.0309C183.899 23.9565 184.309 23.9193 184.736 23.9193C185.648 23.9193 186.103 24.2448 186.103 24.8958C186.103 25.2864 185.964 26.2164 185.685 27.6858C185.257 29.8248 185.043 31.3128 185.043 32.1498C185.043 32.4288 185.108 32.652 185.239 32.8194C185.387 32.9868 185.573 33.0705 185.797 33.0705C186.15 33.0705 186.578 32.8473 187.08 32.4009C187.582 31.9359 188.261 31.1919 189.117 30.1689C189.34 29.9085 189.591 29.7783 189.87 29.7783C190.112 29.7783 190.298 29.8899 190.428 30.1131C190.577 30.3363 190.651 30.6432 190.651 31.0338C190.651 31.7778 190.474 32.3544 190.121 32.7636C189.358 33.7122 188.549 34.512 187.694 35.163C186.838 35.814 186.01 36.1395 185.211 36.1395C184.597 36.1395 184.03 35.9349 183.509 35.5257C183.007 35.0979 182.625 34.5213 182.365 33.7959C181.398 35.3583 180.179 36.1395 178.71 36.1395ZM179.714 33.3216C180.124 33.3216 180.514 33.0798 180.886 32.5962C181.258 32.1126 181.528 31.4709 181.695 30.6711L182.728 25.5375C181.946 25.5561 181.221 25.8537 180.551 26.4303C179.9 26.9883 179.38 27.7323 178.989 28.6623C178.598 29.5923 178.403 30.5781 178.403 31.6197C178.403 32.1963 178.515 32.6241 178.738 32.9031C178.98 33.1821 179.305 33.3216 179.714 33.3216ZM200.827 29.7783C201.069 29.7783 201.255 29.8899 201.385 30.1131C201.534 30.3363 201.608 30.6432 201.608 31.0338C201.608 31.7778 201.432 32.3544 201.078 32.7636C200.278 33.7494 199.404 34.5585 198.456 35.1909C197.507 35.8233 196.419 36.1395 195.191 36.1395C191.397 36.1395 189.5 33.4704 189.5 28.1322C189.5 27.3138 189.528 26.4861 189.583 25.6491H188.495C187.937 25.6491 187.556 25.5468 187.351 25.3422C187.165 25.1376 187.072 24.8121 187.072 24.3657C187.072 23.3241 187.491 22.8033 188.328 22.8033H189.918C190.234 20.7573 190.718 18.888 191.369 17.1954C192.02 15.5028 192.801 14.1543 193.713 13.1499C194.643 12.1455 195.638 11.6433 196.698 11.6433C197.479 11.6433 198.093 11.9874 198.539 12.6756C198.986 13.3638 199.209 14.2287 199.209 15.2703C199.209 18.1533 198 20.6643 195.582 22.8033H198.707C199.004 22.8033 199.218 22.8684 199.348 22.9986C199.479 23.1288 199.544 23.3706 199.544 23.724C199.544 25.0074 198.493 25.6491 196.391 25.6491H192.987C192.95 26.5791 192.931 27.3045 192.931 27.8253C192.931 29.7597 193.155 31.1175 193.601 31.8987C194.066 32.6799 194.791 33.0705 195.777 33.0705C196.577 33.0705 197.284 32.8287 197.898 32.3451C198.511 31.8615 199.237 31.1361 200.074 30.1689C200.297 29.9085 200.548 29.7783 200.827 29.7783ZM195.945 14.3217C195.666 14.3217 195.349 14.6751 194.996 15.3819C194.661 16.0701 194.336 17.0373 194.019 18.2835C193.722 19.5111 193.471 20.8782 193.266 22.3848C194.364 21.4362 195.182 20.376 195.721 19.2042C196.279 18.0138 196.558 16.935 196.558 15.9678C196.558 14.8704 196.354 14.3217 195.945 14.3217ZM204.052 36.1395C202.954 36.1395 202.015 35.8698 201.234 35.3304C200.471 34.7724 199.895 34.047 199.504 33.1542C199.113 32.2614 198.918 31.3035 198.918 30.2805C198.918 28.8669 199.178 27.6114 199.699 26.514C200.239 25.398 200.964 24.5331 201.875 23.9193C202.787 23.2869 203.81 22.9707 204.944 22.9707C206.042 22.9707 206.981 23.2497 207.762 23.8077C208.544 24.3471 209.129 25.0632 209.52 25.956C209.911 26.8488 210.106 27.8067 210.106 28.8297C210.106 30.2433 209.836 31.5081 209.297 32.6241C208.757 33.7215 208.023 34.5864 207.093 35.2188C206.181 35.8326 205.168 36.1395 204.052 36.1395ZM204.359 33.1263C204.991 33.1263 205.521 32.7822 205.949 32.094C206.395 31.4058 206.618 30.4014 206.618 29.0808C206.618 28.0578 206.432 27.2859 206.06 26.7651C205.688 26.2443 205.242 25.9839 204.721 25.9839C204.052 25.9839 203.494 26.328 203.047 27.0162C202.619 27.6858 202.406 28.6902 202.406 30.0294C202.406 31.0896 202.592 31.8708 202.964 32.373C203.336 32.8752 203.801 33.1263 204.359 33.1263Z" fill="#1ABC9C"/>
<path d="M4.552 40.076C4.62 40.112 4.658 40.166 4.666 40.238C4.678 40.31 4.66 40.376 4.612 40.436C4.576 40.488 4.53 40.516 4.474 40.52C4.418 40.524 4.362 40.512 4.306 40.484C4.174 40.404 4.032 40.342 3.88 40.298C3.728 40.25 3.568 40.226 3.4 40.226C3.164 40.226 2.948 40.268 2.752 40.352C2.556 40.432 2.386 40.546 2.242 40.694C2.098 40.842 1.986 41.018 1.906 41.222C1.826 41.426 1.786 41.652 1.786 41.9C1.786 42.164 1.828 42.4 1.912 42.608C1.996 42.816 2.11 42.994 2.254 43.142C2.402 43.286 2.572 43.396 2.764 43.472C2.96 43.548 3.172 43.586 3.4 43.586C3.564 43.586 3.722 43.564 3.874 43.52C4.026 43.476 4.17 43.412 4.306 43.328C4.362 43.3 4.418 43.29 4.474 43.298C4.53 43.306 4.578 43.334 4.618 43.382C4.666 43.446 4.684 43.514 4.672 43.586C4.66 43.654 4.622 43.704 4.558 43.736C4.458 43.796 4.344 43.852 4.216 43.904C4.088 43.952 3.954 43.99 3.814 44.018C3.678 44.046 3.54 44.06 3.4 44.06C3.112 44.06 2.84 44.01 2.584 43.91C2.328 43.81 2.102 43.666 1.906 43.478C1.71 43.29 1.554 43.064 1.438 42.8C1.326 42.532 1.27 42.232 1.27 41.9C1.27 41.588 1.324 41.302 1.432 41.042C1.54 40.782 1.69 40.556 1.882 40.364C2.078 40.172 2.304 40.022 2.56 39.914C2.82 39.806 3.1 39.752 3.4 39.752C3.608 39.752 3.81 39.78 4.006 39.836C4.206 39.892 4.388 39.972 4.552 40.076ZM12.1812 41.9C12.1812 42.208 12.1312 42.494 12.0312 42.758C11.9312 43.018 11.7912 43.246 11.6112 43.442C11.4312 43.638 11.2172 43.79 10.9692 43.898C10.7212 44.006 10.4512 44.06 10.1592 44.06C9.86319 44.06 9.59119 44.006 9.34319 43.898C9.09919 43.79 8.88719 43.638 8.70719 43.442C8.52719 43.246 8.38719 43.018 8.28719 42.758C8.18719 42.494 8.13719 42.208 8.13719 41.9C8.13719 41.588 8.18719 41.302 8.28719 41.042C8.38719 40.778 8.52719 40.55 8.70719 40.358C8.88719 40.162 9.09919 40.01 9.34319 39.902C9.59119 39.794 9.86319 39.74 10.1592 39.74C10.4512 39.74 10.7212 39.794 10.9692 39.902C11.2172 40.01 11.4312 40.162 11.6112 40.358C11.7912 40.55 11.9312 40.778 12.0312 41.042C12.1312 41.302 12.1812 41.588 12.1812 41.9ZM11.6652 41.9C11.6652 41.572 11.5992 41.282 11.4672 41.03C11.3392 40.778 11.1632 40.58 10.9392 40.436C10.7152 40.292 10.4552 40.22 10.1592 40.22C9.86319 40.22 9.60119 40.292 9.37319 40.436C9.14919 40.58 8.97319 40.778 8.84519 41.03C8.71719 41.282 8.65319 41.572 8.65319 41.9C8.65319 42.224 8.71719 42.514 8.84519 42.77C8.97319 43.022 9.14919 43.22 9.37319 43.364C9.60119 43.508 9.86319 43.58 10.1592 43.58C10.4552 43.58 10.7152 43.508 10.9392 43.364C11.1632 43.22 11.3392 43.022 11.4672 42.77C11.5992 42.514 11.6652 42.224 11.6652 41.9ZM19.0852 39.8C19.1532 39.8 19.2072 39.822 19.2472 39.866C19.2872 39.906 19.3072 39.958 19.3072 40.022V43.748C19.3072 43.824 19.2832 43.886 19.2352 43.934C19.1872 43.978 19.1292 44 19.0612 44C19.0252 44 18.9892 43.994 18.9532 43.982C18.9172 43.966 18.8892 43.946 18.8692 43.922L16.3012 40.526L16.4212 40.454V43.778C16.4212 43.842 16.3992 43.896 16.3552 43.94C16.3152 43.98 16.2612 44 16.1932 44C16.1292 44 16.0772 43.98 16.0372 43.94C15.9972 43.896 15.9772 43.842 15.9772 43.778V40.04C15.9772 39.968 15.9992 39.91 16.0432 39.866C16.0912 39.822 16.1472 39.8 16.2112 39.8C16.2472 39.8 16.2832 39.808 16.3192 39.824C16.3592 39.836 16.3892 39.856 16.4092 39.884L18.9412 43.232L18.8632 43.328V40.022C18.8632 39.958 18.8832 39.906 18.9232 39.866C18.9672 39.822 19.0212 39.8 19.0852 39.8ZM23.6 39.8H25.736C25.804 39.8 25.862 39.822 25.91 39.866C25.958 39.91 25.982 39.966 25.982 40.034C25.982 40.102 25.958 40.158 25.91 40.202C25.862 40.242 25.804 40.262 25.736 40.262H23.804L23.858 40.16V41.678L23.798 41.612H25.466C25.534 41.612 25.592 41.634 25.64 41.678C25.688 41.722 25.712 41.778 25.712 41.846C25.712 41.914 25.688 41.97 25.64 42.014C25.592 42.054 25.534 42.074 25.466 42.074H23.816L23.858 42.02V43.574L23.822 43.532H25.736C25.804 43.532 25.862 43.556 25.91 43.604C25.958 43.652 25.982 43.706 25.982 43.766C25.982 43.834 25.958 43.89 25.91 43.934C25.862 43.978 25.804 44 25.736 44H23.6C23.532 44 23.474 43.976 23.426 43.928C23.382 43.88 23.36 43.822 23.36 43.754V40.04C23.36 39.972 23.382 39.916 23.426 39.872C23.474 39.824 23.532 39.8 23.6 39.8ZM32.8059 40.076C32.8739 40.112 32.9119 40.166 32.9199 40.238C32.9319 40.31 32.9139 40.376 32.8659 40.436C32.8299 40.488 32.7839 40.516 32.7279 40.52C32.6719 40.524 32.6159 40.512 32.5599 40.484C32.4279 40.404 32.2859 40.342 32.1339 40.298C31.9819 40.25 31.8219 40.226 31.6539 40.226C31.4179 40.226 31.2019 40.268 31.0059 40.352C30.8099 40.432 30.6399 40.546 30.4959 40.694C30.3519 40.842 30.2399 41.018 30.1599 41.222C30.0799 41.426 30.0399 41.652 30.0399 41.9C30.0399 42.164 30.0819 42.4 30.1659 42.608C30.2499 42.816 30.3639 42.994 30.5079 43.142C30.6559 43.286 30.8259 43.396 31.0179 43.472C31.2139 43.548 31.4259 43.586 31.6539 43.586C31.8179 43.586 31.9759 43.564 32.1279 43.52C32.2799 43.476 32.4239 43.412 32.5599 43.328C32.6159 43.3 32.6719 43.29 32.7279 43.298C32.7839 43.306 32.8319 43.334 32.8719 43.382C32.9199 43.446 32.9379 43.514 32.9259 43.586C32.9139 43.654 32.8759 43.704 32.8119 43.736C32.7119 43.796 32.5979 43.852 32.4699 43.904C32.3419 43.952 32.2079 43.99 32.0679 44.018C31.9319 44.046 31.7939 44.06 31.6539 44.06C31.3659 44.06 31.0939 44.01 30.8379 43.91C30.5819 43.81 30.3559 43.666 30.1599 43.478C29.9639 43.29 29.8079 43.064 29.6919 42.8C29.5799 42.532 29.5239 42.232 29.5239 41.9C29.5239 41.588 29.5779 41.302 29.6859 41.042C29.7939 40.782 29.9439 40.556 30.1359 40.364C30.3319 40.172 30.5579 40.022 30.8139 39.914C31.0739 39.806 31.3539 39.752 31.6539 39.752C31.8619 39.752 32.0639 39.78 32.2599 39.836C32.4599 39.892 32.6419 39.972 32.8059 40.076ZM37.9511 44C37.8791 44 37.8191 43.976 37.7711 43.928C37.7231 43.88 37.6991 43.822 37.6991 43.754V40.046H38.2091V43.754C38.2091 43.822 38.1851 43.88 38.1371 43.928C38.0891 43.976 38.0271 44 37.9511 44ZM36.5591 40.256C36.4911 40.256 36.4331 40.236 36.3851 40.196C36.3411 40.152 36.3191 40.096 36.3191 40.028C36.3191 39.96 36.3411 39.906 36.3851 39.866C36.4331 39.822 36.4911 39.8 36.5591 39.8H39.3491C39.4171 39.8 39.4751 39.822 39.5231 39.866C39.5711 39.906 39.5951 39.96 39.5951 40.028C39.5951 40.1 39.5711 40.156 39.5231 40.196C39.4751 40.236 39.4171 40.256 39.3491 40.256H36.5591ZM44.4702 40.424L43.0602 43.856C43.0442 43.904 43.0162 43.942 42.9762 43.97C42.9362 43.998 42.8942 44.012 42.8502 44.012C42.7742 44.012 42.7182 43.992 42.6822 43.952C42.6462 43.912 42.6282 43.864 42.6282 43.808C42.6242 43.78 42.6282 43.75 42.6402 43.718L44.1942 39.938C44.2142 39.882 44.2442 39.842 44.2842 39.818C44.3282 39.79 44.3762 39.778 44.4282 39.782C44.4802 39.782 44.5262 39.796 44.5662 39.824C44.6102 39.852 44.6402 39.89 44.6562 39.938L46.2042 43.682C46.2162 43.714 46.2222 43.746 46.2222 43.778C46.2222 43.85 46.1982 43.908 46.1502 43.952C46.1022 43.992 46.0482 44.012 45.9882 44.012C45.9402 44.012 45.8962 43.998 45.8562 43.97C45.8162 43.942 45.7862 43.902 45.7662 43.85L44.3382 40.418L44.4702 40.424ZM43.3602 42.878L43.5642 42.41H45.3462L45.4362 42.878H43.3602ZM52.9876 39.8C53.0556 39.8 53.1096 39.822 53.1496 39.866C53.1896 39.906 53.2096 39.958 53.2096 40.022V43.748C53.2096 43.824 53.1856 43.886 53.1376 43.934C53.0896 43.978 53.0316 44 52.9636 44C52.9276 44 52.8916 43.994 52.8556 43.982C52.8196 43.966 52.7916 43.946 52.7716 43.922L50.2036 40.526L50.3236 40.454V43.778C50.3236 43.842 50.3016 43.896 50.2576 43.94C50.2176 43.98 50.1636 44 50.0956 44C50.0316 44 49.9796 43.98 49.9396 43.94C49.8996 43.896 49.8796 43.842 49.8796 43.778V40.04C49.8796 39.968 49.9016 39.91 49.9456 39.866C49.9936 39.822 50.0496 39.8 50.1136 39.8C50.1496 39.8 50.1856 39.808 50.2216 39.824C50.2616 39.836 50.2916 39.856 50.3116 39.884L52.8436 43.232L52.7656 43.328V40.022C52.7656 39.958 52.7856 39.906 52.8256 39.866C52.8696 39.822 52.9236 39.8 52.9876 39.8ZM59.0024 39.8C59.2944 39.8 59.5504 39.856 59.7704 39.968C59.9944 40.076 60.1804 40.228 60.3284 40.424C60.4764 40.62 60.5864 40.846 60.6584 41.102C60.7344 41.354 60.7724 41.62 60.7724 41.9C60.7724 42.284 60.7064 42.636 60.5744 42.956C60.4424 43.272 60.2464 43.526 59.9864 43.718C59.7264 43.906 59.3984 44 59.0024 44H57.5024C57.4344 44 57.3764 43.976 57.3284 43.928C57.2844 43.88 57.2624 43.822 57.2624 43.754V40.04C57.2624 39.972 57.2844 39.916 57.3284 39.872C57.3764 39.824 57.4344 39.8 57.5024 39.8H59.0024ZM58.9424 43.532C59.2504 43.532 59.5004 43.458 59.6924 43.31C59.8884 43.162 60.0304 42.964 60.1184 42.716C60.2104 42.468 60.2564 42.196 60.2564 41.9C60.2564 41.684 60.2304 41.478 60.1784 41.282C60.1304 41.082 60.0524 40.906 59.9444 40.754C59.8404 40.602 59.7044 40.482 59.5364 40.394C59.3724 40.306 59.1744 40.262 58.9424 40.262H57.7124L57.7604 40.214V43.592L57.7244 43.532H58.9424ZM68.355 41.9C68.355 42.208 68.305 42.494 68.205 42.758C68.105 43.018 67.965 43.246 67.785 43.442C67.605 43.638 67.391 43.79 67.143 43.898C66.895 44.006 66.625 44.06 66.333 44.06C66.037 44.06 65.765 44.006 65.517 43.898C65.273 43.79 65.061 43.638 64.881 43.442C64.701 43.246 64.561 43.018 64.461 42.758C64.361 42.494 64.311 42.208 64.311 41.9C64.311 41.588 64.361 41.302 64.461 41.042C64.561 40.778 64.701 40.55 64.881 40.358C65.061 40.162 65.273 40.01 65.517 39.902C65.765 39.794 66.037 39.74 66.333 39.74C66.625 39.74 66.895 39.794 67.143 39.902C67.391 40.01 67.605 40.162 67.785 40.358C67.965 40.55 68.105 40.778 68.205 41.042C68.305 41.302 68.355 41.588 68.355 41.9ZM67.839 41.9C67.839 41.572 67.773 41.282 67.641 41.03C67.513 40.778 67.337 40.58 67.113 40.436C66.889 40.292 66.629 40.22 66.333 40.22C66.037 40.22 65.775 40.292 65.547 40.436C65.323 40.58 65.147 40.778 65.019 41.03C64.891 41.282 64.827 41.572 64.827 41.9C64.827 42.224 64.891 42.514 65.019 42.77C65.147 43.022 65.323 43.22 65.547 43.364C65.775 43.508 66.037 43.58 66.333 43.58C66.629 43.58 66.889 43.508 67.113 43.364C67.337 43.22 67.513 43.022 67.641 42.77C67.773 42.514 67.839 42.224 67.839 41.9ZM79.1194 43.526C79.1874 43.526 79.2454 43.55 79.2934 43.598C79.3414 43.642 79.3654 43.698 79.3654 43.766C79.3654 43.834 79.3414 43.89 79.2934 43.934C79.2454 43.978 79.1874 44 79.1194 44H77.0434C76.9754 44 76.9174 43.976 76.8694 43.928C76.8254 43.88 76.8034 43.822 76.8034 43.754V40.04C76.8034 39.972 76.8274 39.916 76.8754 39.872C76.9234 39.824 76.9834 39.8 77.0554 39.8C77.1234 39.8 77.1814 39.824 77.2294 39.872C77.2774 39.916 77.3014 39.972 77.3014 40.04V43.634L77.1814 43.526H79.1194ZM83.2953 39.8H85.4313C85.4993 39.8 85.5573 39.822 85.6053 39.866C85.6533 39.91 85.6773 39.966 85.6773 40.034C85.6773 40.102 85.6533 40.158 85.6053 40.202C85.5573 40.242 85.4993 40.262 85.4313 40.262H83.4993L83.5533 40.16V41.678L83.4933 41.612H85.1613C85.2293 41.612 85.2873 41.634 85.3353 41.678C85.3833 41.722 85.4073 41.778 85.4073 41.846C85.4073 41.914 85.3833 41.97 85.3353 42.014C85.2873 42.054 85.2293 42.074 85.1613 42.074H83.5113L83.5533 42.02V43.574L83.5173 43.532H85.4313C85.4993 43.532 85.5573 43.556 85.6053 43.604C85.6533 43.652 85.6773 43.706 85.6773 43.766C85.6773 43.834 85.6533 43.89 85.6053 43.934C85.5573 43.978 85.4993 44 85.4313 44H83.2953C83.2273 44 83.1693 43.976 83.1213 43.928C83.0773 43.88 83.0553 43.822 83.0553 43.754V40.04C83.0553 39.972 83.0773 39.916 83.1213 39.872C83.1693 39.824 83.2273 39.8 83.2953 39.8ZM92.5012 40.076C92.5692 40.112 92.6072 40.166 92.6152 40.238C92.6272 40.31 92.6092 40.376 92.5612 40.436C92.5252 40.488 92.4792 40.516 92.4232 40.52C92.3672 40.524 92.3112 40.512 92.2552 40.484C92.1232 40.404 91.9812 40.342 91.8292 40.298C91.6772 40.25 91.5172 40.226 91.3492 40.226C91.1132 40.226 90.8972 40.268 90.7012 40.352C90.5052 40.432 90.3352 40.546 90.1912 40.694C90.0472 40.842 89.9352 41.018 89.8552 41.222C89.7752 41.426 89.7352 41.652 89.7352 41.9C89.7352 42.164 89.7772 42.4 89.8612 42.608C89.9452 42.816 90.0592 42.994 90.2032 43.142C90.3512 43.286 90.5212 43.396 90.7132 43.472C90.9092 43.548 91.1212 43.586 91.3492 43.586C91.5132 43.586 91.6712 43.564 91.8232 43.52C91.9752 43.476 92.1192 43.412 92.2552 43.328C92.3112 43.3 92.3672 43.29 92.4232 43.298C92.4792 43.306 92.5272 43.334 92.5672 43.382C92.6152 43.446 92.6332 43.514 92.6212 43.586C92.6092 43.654 92.5712 43.704 92.5072 43.736C92.4072 43.796 92.2932 43.852 92.1652 43.904C92.0372 43.952 91.9032 43.99 91.7632 44.018C91.6272 44.046 91.4892 44.06 91.3492 44.06C91.0612 44.06 90.7892 44.01 90.5332 43.91C90.2772 43.81 90.0512 43.666 89.8552 43.478C89.6592 43.29 89.5032 43.064 89.3872 42.8C89.2752 42.532 89.2192 42.232 89.2192 41.9C89.2192 41.588 89.2732 41.302 89.3812 41.042C89.4892 40.782 89.6392 40.556 89.8312 40.364C90.0272 40.172 90.2532 40.022 90.5092 39.914C90.7692 39.806 91.0492 39.752 91.3492 39.752C91.5572 39.752 91.7592 39.78 91.9552 39.836C92.1552 39.892 92.3372 39.972 92.5012 40.076ZM97.6464 44C97.5744 44 97.5144 43.976 97.4664 43.928C97.4184 43.88 97.3944 43.822 97.3944 43.754V40.046H97.9044V43.754C97.9044 43.822 97.8804 43.88 97.8324 43.928C97.7844 43.976 97.7224 44 97.6464 44ZM96.2544 40.256C96.1864 40.256 96.1284 40.236 96.0804 40.196C96.0364 40.152 96.0144 40.096 96.0144 40.028C96.0144 39.96 96.0364 39.906 96.0804 39.866C96.1284 39.822 96.1864 39.8 96.2544 39.8H99.0444C99.1124 39.8 99.1704 39.822 99.2184 39.866C99.2664 39.906 99.2904 39.96 99.2904 40.028C99.2904 40.1 99.2664 40.156 99.2184 40.196C99.1704 40.236 99.1124 40.256 99.0444 40.256H96.2544ZM106.681 41.9C106.681 42.208 106.631 42.494 106.531 42.758C106.431 43.018 106.291 43.246 106.111 43.442C105.931 43.638 105.717 43.79 105.469 43.898C105.221 44.006 104.951 44.06 104.659 44.06C104.363 44.06 104.091 44.006 103.843 43.898C103.599 43.79 103.387 43.638 103.207 43.442C103.027 43.246 102.887 43.018 102.787 42.758C102.687 42.494 102.637 42.208 102.637 41.9C102.637 41.588 102.687 41.302 102.787 41.042C102.887 40.778 103.027 40.55 103.207 40.358C103.387 40.162 103.599 40.01 103.843 39.902C104.091 39.794 104.363 39.74 104.659 39.74C104.951 39.74 105.221 39.794 105.469 39.902C105.717 40.01 105.931 40.162 106.111 40.358C106.291 40.55 106.431 40.778 106.531 41.042C106.631 41.302 106.681 41.588 106.681 41.9ZM106.165 41.9C106.165 41.572 106.099 41.282 105.967 41.03C105.839 40.778 105.663 40.58 105.439 40.436C105.215 40.292 104.955 40.22 104.659 40.22C104.363 40.22 104.101 40.292 103.873 40.436C103.649 40.58 103.473 40.778 103.345 41.03C103.217 41.282 103.153 41.572 103.153 41.9C103.153 42.224 103.217 42.514 103.345 42.77C103.473 43.022 103.649 43.22 103.873 43.364C104.101 43.508 104.363 43.58 104.659 43.58C104.955 43.58 105.215 43.508 105.439 43.364C105.663 43.22 105.839 43.022 105.967 42.77C106.099 42.514 106.165 42.224 106.165 41.9ZM110.753 44C110.677 44 110.611 43.976 110.555 43.928C110.503 43.88 110.477 43.822 110.477 43.754V40.04C110.477 39.972 110.499 39.916 110.543 39.872C110.591 39.824 110.649 39.8 110.717 39.8H112.373C112.597 39.8 112.799 39.852 112.979 39.956C113.159 40.056 113.301 40.196 113.405 40.376C113.513 40.552 113.567 40.756 113.567 40.988C113.567 41.156 113.535 41.314 113.471 41.462C113.407 41.606 113.319 41.732 113.207 41.84C113.095 41.944 112.967 42.024 112.823 42.08L112.691 41.984C112.827 42.016 112.949 42.074 113.057 42.158C113.165 42.238 113.253 42.342 113.321 42.47C113.389 42.594 113.425 42.74 113.429 42.908C113.437 43.056 113.447 43.174 113.459 43.262C113.471 43.35 113.489 43.42 113.513 43.472C113.537 43.52 113.571 43.558 113.615 43.586C113.671 43.622 113.707 43.67 113.723 43.73C113.743 43.79 113.733 43.848 113.693 43.904C113.669 43.94 113.635 43.966 113.591 43.982C113.547 43.994 113.503 43.998 113.459 43.994C113.415 43.99 113.377 43.978 113.345 43.958C113.281 43.922 113.219 43.87 113.159 43.802C113.099 43.73 113.049 43.628 113.009 43.496C112.969 43.364 112.949 43.184 112.949 42.956C112.949 42.828 112.929 42.722 112.889 42.638C112.849 42.554 112.795 42.486 112.727 42.434C112.659 42.382 112.583 42.346 112.499 42.326C112.415 42.306 112.329 42.296 112.241 42.296H110.903L110.975 42.188V43.754C110.975 43.822 110.955 43.88 110.915 43.928C110.875 43.976 110.821 44 110.753 44ZM110.903 41.864H112.373C112.489 41.856 112.597 41.816 112.697 41.744C112.801 41.672 112.885 41.572 112.949 41.444C113.017 41.312 113.051 41.164 113.051 41C113.051 40.788 112.983 40.612 112.847 40.472C112.715 40.332 112.547 40.262 112.343 40.262H110.927L110.975 40.148V41.972L110.903 41.864ZM117.772 39.8H119.908C119.976 39.8 120.034 39.822 120.082 39.866C120.13 39.91 120.154 39.966 120.154 40.034C120.154 40.102 120.13 40.158 120.082 40.202C120.034 40.242 119.976 40.262 119.908 40.262H117.976L118.03 40.16V41.678L117.97 41.612H119.638C119.706 41.612 119.764 41.634 119.812 41.678C119.86 41.722 119.884 41.778 119.884 41.846C119.884 41.914 119.86 41.97 119.812 42.014C119.764 42.054 119.706 42.074 119.638 42.074H117.988L118.03 42.02V43.574L117.994 43.532H119.908C119.976 43.532 120.034 43.556 120.082 43.604C120.13 43.652 120.154 43.706 120.154 43.766C120.154 43.834 120.13 43.89 120.082 43.934C120.034 43.978 119.976 44 119.908 44H117.772C117.704 44 117.646 43.976 117.598 43.928C117.554 43.88 117.532 43.822 117.532 43.754V40.04C117.532 39.972 117.554 39.916 117.598 39.872C117.646 39.824 117.704 39.8 117.772 39.8ZM125.178 44.06C124.882 44.06 124.622 44.016 124.398 43.928C124.174 43.84 123.958 43.7 123.75 43.508C123.722 43.48 123.698 43.45 123.678 43.418C123.662 43.382 123.654 43.344 123.654 43.304C123.654 43.24 123.676 43.184 123.72 43.136C123.768 43.084 123.826 43.058 123.894 43.058C123.95 43.058 124 43.08 124.044 43.124C124.2 43.276 124.368 43.392 124.548 43.472C124.732 43.552 124.938 43.592 125.166 43.592C125.342 43.592 125.5 43.564 125.64 43.508C125.784 43.452 125.898 43.374 125.982 43.274C126.066 43.174 126.108 43.058 126.108 42.926C126.104 42.766 126.056 42.634 125.964 42.53C125.876 42.426 125.752 42.34 125.592 42.272C125.436 42.2 125.254 42.14 125.046 42.092C124.862 42.048 124.692 41.994 124.536 41.93C124.384 41.866 124.252 41.788 124.14 41.696C124.028 41.6 123.94 41.486 123.876 41.354C123.816 41.218 123.786 41.06 123.786 40.88C123.786 40.652 123.846 40.452 123.966 40.28C124.086 40.108 124.252 39.976 124.464 39.884C124.676 39.788 124.92 39.74 125.196 39.74C125.44 39.74 125.67 39.78 125.886 39.86C126.106 39.94 126.282 40.05 126.414 40.19C126.494 40.266 126.534 40.34 126.534 40.412C126.534 40.472 126.508 40.528 126.456 40.58C126.408 40.628 126.352 40.652 126.288 40.652C126.244 40.652 126.204 40.636 126.168 40.604C126.1 40.528 126.014 40.46 125.91 40.4C125.806 40.34 125.692 40.292 125.568 40.256C125.444 40.22 125.32 40.202 125.196 40.202C125.012 40.202 124.85 40.23 124.71 40.286C124.57 40.338 124.46 40.414 124.38 40.514C124.304 40.61 124.266 40.726 124.266 40.862C124.266 41.014 124.31 41.14 124.398 41.24C124.486 41.336 124.604 41.416 124.752 41.48C124.9 41.54 125.064 41.594 125.244 41.642C125.44 41.69 125.62 41.746 125.784 41.81C125.952 41.87 126.096 41.946 126.216 42.038C126.336 42.13 126.428 42.248 126.492 42.392C126.56 42.532 126.594 42.706 126.594 42.914C126.594 43.134 126.532 43.33 126.408 43.502C126.284 43.674 126.114 43.81 125.898 43.91C125.686 44.006 125.446 44.056 125.178 44.06ZM137.607 39.776C137.675 39.776 137.731 39.802 137.775 39.854C137.823 39.902 137.847 39.958 137.847 40.022C137.847 40.046 137.843 40.072 137.835 40.1C137.831 40.124 137.821 40.148 137.805 40.172L136.413 42.11L136.491 41.816V43.754C136.491 43.822 136.467 43.88 136.419 43.928C136.375 43.976 136.321 44 136.257 44C136.185 44 136.125 43.976 136.077 43.928C136.033 43.88 136.011 43.822 136.011 43.754V41.864L136.053 42.02L134.703 40.196C134.679 40.164 134.661 40.134 134.649 40.106C134.641 40.074 134.637 40.044 134.637 40.016C134.637 39.948 134.665 39.892 134.721 39.848C134.777 39.8 134.833 39.776 134.889 39.776C134.969 39.776 135.035 39.814 135.087 39.89L136.329 41.594L136.215 41.576L137.409 39.896C137.461 39.816 137.527 39.776 137.607 39.776ZM149.245 39.8C149.313 39.8 149.367 39.822 149.407 39.866C149.447 39.906 149.467 39.958 149.467 40.022V43.748C149.467 43.824 149.443 43.886 149.395 43.934C149.347 43.978 149.289 44 149.221 44C149.185 44 149.149 43.994 149.113 43.982C149.077 43.966 149.049 43.946 149.029 43.922L146.461 40.526L146.581 40.454V43.778C146.581 43.842 146.559 43.896 146.515 43.94C146.475 43.98 146.421 44 146.353 44C146.289 44 146.237 43.98 146.197 43.94C146.157 43.896 146.137 43.842 146.137 43.778V40.04C146.137 39.968 146.159 39.91 146.203 39.866C146.251 39.822 146.307 39.8 146.371 39.8C146.407 39.8 146.443 39.808 146.479 39.824C146.519 39.836 146.549 39.856 146.569 39.884L149.101 43.232L149.023 43.328V40.022C149.023 39.958 149.043 39.906 149.083 39.866C149.127 39.822 149.181 39.8 149.245 39.8ZM154.972 40.424L153.562 43.856C153.546 43.904 153.518 43.942 153.478 43.97C153.438 43.998 153.396 44.012 153.352 44.012C153.276 44.012 153.22 43.992 153.184 43.952C153.148 43.912 153.13 43.864 153.13 43.808C153.126 43.78 153.13 43.75 153.142 43.718L154.696 39.938C154.716 39.882 154.746 39.842 154.786 39.818C154.83 39.79 154.878 39.778 154.93 39.782C154.982 39.782 155.028 39.796 155.068 39.824C155.112 39.852 155.142 39.89 155.158 39.938L156.706 43.682C156.718 43.714 156.724 43.746 156.724 43.778C156.724 43.85 156.7 43.908 156.652 43.952C156.604 43.992 156.55 44.012 156.49 44.012C156.442 44.012 156.398 43.998 156.358 43.97C156.318 43.942 156.288 43.902 156.268 43.85L154.84 40.418L154.972 40.424ZM153.862 42.878L154.066 42.41H155.848L155.938 42.878H153.862ZM160.658 44C160.582 44 160.516 43.976 160.46 43.928C160.408 43.88 160.382 43.822 160.382 43.754V40.04C160.382 39.972 160.404 39.916 160.448 39.872C160.496 39.824 160.554 39.8 160.622 39.8H162.278C162.502 39.8 162.704 39.852 162.884 39.956C163.064 40.056 163.206 40.196 163.31 40.376C163.418 40.552 163.472 40.756 163.472 40.988C163.472 41.156 163.44 41.314 163.376 41.462C163.312 41.606 163.224 41.732 163.112 41.84C163 41.944 162.872 42.024 162.728 42.08L162.596 41.984C162.732 42.016 162.854 42.074 162.962 42.158C163.07 42.238 163.158 42.342 163.226 42.47C163.294 42.594 163.33 42.74 163.334 42.908C163.342 43.056 163.352 43.174 163.364 43.262C163.376 43.35 163.394 43.42 163.418 43.472C163.442 43.52 163.476 43.558 163.52 43.586C163.576 43.622 163.612 43.67 163.628 43.73C163.648 43.79 163.638 43.848 163.598 43.904C163.574 43.94 163.54 43.966 163.496 43.982C163.452 43.994 163.408 43.998 163.364 43.994C163.32 43.99 163.282 43.978 163.25 43.958C163.186 43.922 163.124 43.87 163.064 43.802C163.004 43.73 162.954 43.628 162.914 43.496C162.874 43.364 162.854 43.184 162.854 42.956C162.854 42.828 162.834 42.722 162.794 42.638C162.754 42.554 162.7 42.486 162.632 42.434C162.564 42.382 162.488 42.346 162.404 42.326C162.32 42.306 162.234 42.296 162.146 42.296H160.808L160.88 42.188V43.754C160.88 43.822 160.86 43.88 160.82 43.928C160.78 43.976 160.726 44 160.658 44ZM160.808 41.864H162.278C162.394 41.856 162.502 41.816 162.602 41.744C162.706 41.672 162.79 41.572 162.854 41.444C162.922 41.312 162.956 41.164 162.956 41C162.956 40.788 162.888 40.612 162.752 40.472C162.62 40.332 162.452 40.262 162.248 40.262H160.832L160.88 40.148V41.972L160.808 41.864ZM167.712 44C167.636 44 167.57 43.976 167.514 43.928C167.462 43.88 167.436 43.822 167.436 43.754V40.04C167.436 39.972 167.458 39.916 167.502 39.872C167.55 39.824 167.608 39.8 167.676 39.8H169.332C169.556 39.8 169.758 39.852 169.938 39.956C170.118 40.056 170.26 40.196 170.364 40.376C170.472 40.552 170.526 40.756 170.526 40.988C170.526 41.156 170.494 41.314 170.43 41.462C170.366 41.606 170.278 41.732 170.166 41.84C170.054 41.944 169.926 42.024 169.782 42.08L169.65 41.984C169.786 42.016 169.908 42.074 170.016 42.158C170.124 42.238 170.212 42.342 170.28 42.47C170.348 42.594 170.384 42.74 170.388 42.908C170.396 43.056 170.406 43.174 170.418 43.262C170.43 43.35 170.448 43.42 170.472 43.472C170.496 43.52 170.53 43.558 170.574 43.586C170.63 43.622 170.666 43.67 170.682 43.73C170.702 43.79 170.692 43.848 170.652 43.904C170.628 43.94 170.594 43.966 170.55 43.982C170.506 43.994 170.462 43.998 170.418 43.994C170.374 43.99 170.336 43.978 170.304 43.958C170.24 43.922 170.178 43.87 170.118 43.802C170.058 43.73 170.008 43.628 169.968 43.496C169.928 43.364 169.908 43.184 169.908 42.956C169.908 42.828 169.888 42.722 169.848 42.638C169.808 42.554 169.754 42.486 169.686 42.434C169.618 42.382 169.542 42.346 169.458 42.326C169.374 42.306 169.288 42.296 169.2 42.296H167.862L167.934 42.188V43.754C167.934 43.822 167.914 43.88 167.874 43.928C167.834 43.976 167.78 44 167.712 44ZM167.862 41.864H169.332C169.448 41.856 169.556 41.816 169.656 41.744C169.76 41.672 169.844 41.572 169.908 41.444C169.976 41.312 170.01 41.164 170.01 41C170.01 40.788 169.942 40.612 169.806 40.472C169.674 40.332 169.506 40.262 169.302 40.262H167.886L167.934 40.148V41.972L167.862 41.864ZM175.943 40.424L174.533 43.856C174.517 43.904 174.489 43.942 174.449 43.97C174.409 43.998 174.367 44.012 174.323 44.012C174.247 44.012 174.191 43.992 174.155 43.952C174.119 43.912 174.101 43.864 174.101 43.808C174.097 43.78 174.101 43.75 174.113 43.718L175.667 39.938C175.687 39.882 175.717 39.842 175.757 39.818C175.801 39.79 175.849 39.778 175.901 39.782C175.953 39.782 175.999 39.796 176.039 39.824C176.083 39.852 176.113 39.89 176.129 39.938L177.677 43.682C177.689 43.714 177.695 43.746 177.695 43.778C177.695 43.85 177.671 43.908 177.623 43.952C177.575 43.992 177.521 44.012 177.461 44.012C177.413 44.012 177.369 43.998 177.329 43.97C177.289 43.942 177.259 43.902 177.239 43.85L175.811 40.418L175.943 40.424ZM174.833 42.878L175.037 42.41H176.819L176.909 42.878H174.833ZM182.355 44C182.283 44 182.223 43.976 182.175 43.928C182.127 43.88 182.103 43.822 182.103 43.754V40.046H182.613V43.754C182.613 43.822 182.589 43.88 182.541 43.928C182.493 43.976 182.431 44 182.355 44ZM180.963 40.256C180.895 40.256 180.837 40.236 180.789 40.196C180.745 40.152 180.723 40.096 180.723 40.028C180.723 39.96 180.745 39.906 180.789 39.866C180.837 39.822 180.895 39.8 180.963 39.8H183.753C183.821 39.8 183.879 39.822 183.927 39.866C183.975 39.906 183.999 39.96 183.999 40.028C183.999 40.1 183.975 40.156 183.927 40.196C183.879 40.236 183.821 40.256 183.753 40.256H180.963ZM188.219 43.754C188.219 43.822 188.193 43.88 188.141 43.928C188.093 43.976 188.035 44 187.967 44C187.891 44 187.831 43.976 187.787 43.928C187.743 43.88 187.721 43.822 187.721 43.754V40.046C187.721 39.974 187.745 39.916 187.793 39.872C187.841 39.824 187.901 39.8 187.973 39.8C188.041 39.8 188.099 39.824 188.147 39.872C188.195 39.916 188.219 39.974 188.219 40.046V43.754ZM195.322 39.794C195.39 39.794 195.448 39.816 195.496 39.86C195.544 39.9 195.568 39.954 195.568 40.022C195.568 40.054 195.56 40.09 195.544 40.13L193.978 43.844C193.954 43.896 193.92 43.936 193.876 43.964C193.836 43.988 193.792 44 193.744 44C193.7 43.996 193.658 43.982 193.618 43.958C193.578 43.93 193.548 43.892 193.528 43.844L191.968 40.136C191.96 40.12 191.954 40.104 191.95 40.088C191.946 40.068 191.944 40.048 191.944 40.028C191.944 39.952 191.97 39.894 192.022 39.854C192.078 39.81 192.132 39.788 192.184 39.788C192.292 39.788 192.37 39.844 192.418 39.956L193.852 43.376H193.714L195.1 39.944C195.148 39.844 195.222 39.794 195.322 39.794ZM200.535 40.424L199.125 43.856C199.109 43.904 199.081 43.942 199.041 43.97C199.001 43.998 198.959 44.012 198.915 44.012C198.839 44.012 198.783 43.992 198.747 43.952C198.711 43.912 198.693 43.864 198.693 43.808C198.689 43.78 198.693 43.75 198.705 43.718L200.259 39.938C200.279 39.882 200.309 39.842 200.349 39.818C200.393 39.79 200.441 39.778 200.493 39.782C200.545 39.782 200.591 39.796 200.631 39.824C200.675 39.852 200.705 39.89 200.721 39.938L202.269 43.682C202.281 43.714 202.287 43.746 202.287 43.778C202.287 43.85 202.263 43.908 202.215 43.952C202.167 43.992 202.113 44.012 202.053 44.012C202.005 44.012 201.961 43.998 201.921 43.97C201.881 43.942 201.851 43.902 201.831 43.85L200.403 40.418L200.535 40.424ZM199.425 42.878L199.629 42.41H201.411L201.501 42.878H199.425ZM207.168 44.06C206.872 44.06 206.612 44.016 206.388 43.928C206.164 43.84 205.948 43.7 205.74 43.508C205.712 43.48 205.688 43.45 205.668 43.418C205.652 43.382 205.644 43.344 205.644 43.304C205.644 43.24 205.666 43.184 205.71 43.136C205.758 43.084 205.816 43.058 205.884 43.058C205.94 43.058 205.99 43.08 206.034 43.124C206.19 43.276 206.358 43.392 206.538 43.472C206.722 43.552 206.928 43.592 207.156 43.592C207.332 43.592 207.49 43.564 207.63 43.508C207.774 43.452 207.888 43.374 207.972 43.274C208.056 43.174 208.098 43.058 208.098 42.926C208.094 42.766 208.046 42.634 207.954 42.53C207.866 42.426 207.742 42.34 207.582 42.272C207.426 42.2 207.244 42.14 207.036 42.092C206.852 42.048 206.682 41.994 206.526 41.93C206.374 41.866 206.242 41.788 206.13 41.696C206.018 41.6 205.93 41.486 205.866 41.354C205.806 41.218 205.776 41.06 205.776 40.88C205.776 40.652 205.836 40.452 205.956 40.28C206.076 40.108 206.242 39.976 206.454 39.884C206.666 39.788 206.91 39.74 207.186 39.74C207.43 39.74 207.66 39.78 207.876 39.86C208.096 39.94 208.272 40.05 208.404 40.19C208.484 40.266 208.524 40.34 208.524 40.412C208.524 40.472 208.498 40.528 208.446 40.58C208.398 40.628 208.342 40.652 208.278 40.652C208.234 40.652 208.194 40.636 208.158 40.604C208.09 40.528 208.004 40.46 207.9 40.4C207.796 40.34 207.682 40.292 207.558 40.256C207.434 40.22 207.31 40.202 207.186 40.202C207.002 40.202 206.84 40.23 206.7 40.286C206.56 40.338 206.45 40.414 206.37 40.514C206.294 40.61 206.256 40.726 206.256 40.862C206.256 41.014 206.3 41.14 206.388 41.24C206.476 41.336 206.594 41.416 206.742 41.48C206.89 41.54 207.054 41.594 207.234 41.642C207.43 41.69 207.61 41.746 207.774 41.81C207.942 41.87 208.086 41.946 208.206 42.038C208.326 42.13 208.418 42.248 208.482 42.392C208.55 42.532 208.584 42.706 208.584 42.914C208.584 43.134 208.522 43.33 208.398 43.502C208.274 43.674 208.104 43.81 207.888 43.91C207.676 44.006 207.436 44.056 207.168 44.06Z" fill="#E67E22"/>
</svg>
